<svg width="786" height="97" viewBox="0 0 786 97" fill="none" xmlns="http://www.w3.org/2000/svg">
<rect x="10" width="242" height="97" rx="12" fill="#FEFBFB"/>
<text fill="#7E7E7E" xml:space="preserve" style="white-space: pre" font-family="Santander Headline" font-size="14" letter-spacing="-0.02em"><tspan x="101.211" y="32.775">Visualiza&#xe7;&#xf5;es</tspan></text>
<text fill="#444344" xml:space="preserve" style="white-space: pre" font-family="Santander Headline" font-size="24" font-weight="bold" letter-spacing="-0.02em"><tspan x="101.211" y="63.9">1.982.327</tspan></text>
<circle cx="55" cy="43" r="28" fill="#434343"/>
<path d="M58.75 43C58.75 40.9289 57.0711 39.25 55 39.25C52.9289 39.25 51.25 40.9289 51.25 43C51.25 45.0711 52.9289 46.75 55 46.75C57.0711 46.75 58.75 45.0711 58.75 43Z" fill="#FEFBFB"/>
<path d="M43 43C43 43 47.5 51.25 55 51.25C62.5 51.25 67 43 67 43C67 43 62.5 34.75 55 34.75C47.5 34.75 43 43 43 43ZM55 37.75C57.8995 37.75 60.25 40.1005 60.25 43C60.25 45.8995 57.8995 48.25 55 48.25C52.1005 48.25 49.75 45.8995 49.75 43C49.75 40.1005 52.1005 37.75 55 37.75Z" fill="#FEFBFB"/>
<path d="M90.2474 77.8601L85.4512 83.3415C84.8854 83.9881 85.3446 85 86.2038 85H95.7962C96.6554 85 97.1146 83.9881 96.5488 83.3415L91.7526 77.8601C91.3542 77.4048 90.6458 77.4048 90.2474 77.8601Z" fill="#00B69B"/>
<path d="M90.2474 84.1399L85.4512 78.6585C84.8854 78.0119 85.3446 77 86.2038 77H95.7962C96.6554 77 97.1146 78.0119 96.5488 78.6585L91.7526 84.1399C91.3542 84.5952 90.6458 84.5952 90.2474 84.1399Z" fill="#F93C65"/>
<text fill="#05CD99" xml:space="preserve" style="white-space: pre" font-family="Santander Micro Text" font-size="10" font-weight="bold" letter-spacing="-0.02em"><tspan x="102" y="84.88">3.12%</tspan></text>
<text fill="#7E7E7E" xml:space="preserve" style="white-space: pre" font-family="Santander Micro Text" font-size="10" letter-spacing="-0.02em"><tspan x="134" y="84.88">since last month</tspan></text>
<rect x="272" width="242" height="97" rx="12" fill="#FEFBFB"/>
<text fill="#7E7E7E" xml:space="preserve" style="white-space: pre" font-family="Santander Headline" font-size="14" letter-spacing="-0.02em"><tspan x="363.211" y="32.775">Clique</tspan></text>
<text fill="#444344" xml:space="preserve" style="white-space: pre" font-family="Santander Headline" font-size="24" font-weight="bold" letter-spacing="-0.02em"><tspan x="363.211" y="63.9">351.662</tspan></text>
<circle cx="317" cy="43" r="28" fill="#434343"/>
<path d="M317.75 33.625V37.6986L317.821 37.6956C318.289 37.6775 318.933 37.6718 319.397 37.7646C319.817 37.8486 320.212 38.0344 320.505 38.1969C320.914 38.4246 321.188 38.7738 321.343 39.1602C321.407 39.1538 321.474 39.1477 321.542 39.1424C322.01 39.106 322.733 39.0856 323.279 39.3036C323.834 39.5258 324.312 40.035 324.6 40.3782C324.712 40.5123 324.811 40.6405 324.891 40.75H325.764C327.539 40.75 328.925 42.2825 328.749 44.0485L328.342 48.1215C328.268 48.8546 328.041 49.5641 327.676 50.2038L325.583 53.8663C325.182 54.5674 324.437 55 323.63 55H314.177C313.325 55 312.546 54.5185 312.165 53.7562L310.342 50.1112L306.605 43.8827C305.98 42.8414 306.283 41.493 307.294 40.8194C308.196 40.2179 309.398 40.3369 310.164 41.1036L312.5 43.4393V33.625C312.5 32.1753 313.675 31 315.125 31C316.575 31 317.75 32.1753 317.75 33.625Z" fill="#FEFBFB"/>
<path d="M352.247 77.8601L347.451 83.3415C346.885 83.9881 347.345 85 348.204 85H357.796C358.655 85 359.115 83.9881 358.549 83.3415L353.753 77.8601C353.354 77.4048 352.646 77.4048 352.247 77.8601Z" fill="#00B69B"/>
<path d="M352.247 84.1399L347.451 78.6585C346.885 78.0119 347.345 77 348.204 77H357.796C358.655 77 359.115 78.0119 358.549 78.6585L353.753 84.1399C353.354 84.5952 352.646 84.5952 352.247 84.1399Z" fill="#F93C65"/>
<text fill="#EC0000" fill-opacity="0.5" xml:space="preserve" style="white-space: pre" font-family="Santander Micro Text" font-size="10" font-weight="bold" letter-spacing="-0.02em"><tspan x="364" y="84.88">3.12%</tspan></text>
<text fill="#7E7E7E" xml:space="preserve" style="white-space: pre" font-family="Santander Micro Text" font-size="10" letter-spacing="-0.02em"><tspan x="396" y="84.88">since last month</tspan></text>
<rect x="534" width="242" height="97" rx="12" fill="#FEFBFB"/>
<text fill="#7E7E7E" xml:space="preserve" style="white-space: pre" font-family="Santander Headline" font-size="14" letter-spacing="-0.02em"><tspan x="625.211" y="32.775">CTR</tspan></text>
<text fill="#444344" xml:space="preserve" style="white-space: pre" font-family="Santander Headline" font-size="24" font-weight="bold" letter-spacing="-0.02em"><tspan x="625.211" y="63.9">29,2%</tspan></text>
<circle cx="579" cy="43" r="28" fill="#434343"/>
<path d="M587.163 34.8371C587.529 35.2032 587.766 35.8339 587.4 36.2L572.2 51.4C571.834 51.7661 571.203 51.529 570.837 51.1629C570.471 50.7968 570.234 50.1661 570.6 49.8L585.8 34.6C586.166 34.2339 586.797 34.471 587.163 34.8371Z" fill="#FEFBFB"/>
<path d="M573.75 40C572.507 40 571.5 38.9926 571.5 37.75C571.5 36.5074 572.507 35.5 573.75 35.5C574.993 35.5 576 36.5074 576 37.75C576 38.9926 574.993 40 573.75 40ZM573.75 41.5C575.821 41.5 577.5 39.8211 577.5 37.75C577.5 35.6789 575.821 34 573.75 34C571.679 34 570 35.6789 570 37.75C570 39.8211 571.679 41.5 573.75 41.5Z" fill="#FEFBFB"/>
<path d="M584.25 50.5C583.007 50.5 582 49.4926 582 48.25C582 47.0074 583.007 46 584.25 46C585.493 46 586.5 47.0074 586.5 48.25C586.5 49.4926 585.493 50.5 584.25 50.5ZM584.25 52C586.321 52 588 50.3211 588 48.25C588 46.1789 586.321 44.5 584.25 44.5C582.179 44.5 580.5 46.1789 580.5 48.25C580.5 50.3211 582.179 52 584.25 52Z" fill="#FEFBFB"/>
<path d="M614.247 77.8601L609.451 83.3415C608.885 83.9881 609.345 85 610.204 85H619.796C620.655 85 621.115 83.9881 620.549 83.3415L615.753 77.8601C615.354 77.4048 614.646 77.4048 614.247 77.8601Z" fill="#00B69B"/>
<path d="M614.247 84.1399L609.451 78.6585C608.885 78.0119 609.345 77 610.204 77H619.796C620.655 77 621.115 78.0119 620.549 78.6585L615.753 84.1399C615.354 84.5952 614.646 84.5952 614.247 84.1399Z" fill="#F93C65"/>
<text fill="#EC0000" fill-opacity="0.5" xml:space="preserve" style="white-space: pre" font-family="Santander Micro Text" font-size="10" font-weight="bold" letter-spacing="-0.02em"><tspan x="626" y="84.88">3.12%</tspan></text>
<text fill="#7E7E7E" xml:space="preserve" style="white-space: pre" font-family="Santander Micro Text" font-size="10" letter-spacing="-0.02em"><tspan x="658" y="84.88">since last month</tspan></text>
</svg>
